<svg width="45" height="45" viewBox="0 0 45 45" fill="none" xmlns="http://www.w3.org/2000/svg">
<path d="M25.7146 43.3931H4.82171C3.96923 43.3931 3.15166 43.0545 2.54886 42.4517C1.94607 41.8489 1.60742 41.0313 1.60742 40.1788V4.82171C1.60742 3.96923 1.94607 3.15166 2.54886 2.54886C3.15166 1.94607 3.96923 1.60742 4.82171 1.60742H28.9288M33.7503 30.536H43.3931M11.2503 1.60742V43.3931M19.286 12.8574H25.7146M33.7503 11.2503L38.5717 1.60742L43.3931 11.2503V38.5717C43.3931 39.8504 42.8852 41.0768 41.981 41.981C41.0768 42.8852 39.8504 43.3931 38.5717 43.3931C37.293 43.3931 36.0666 42.8852 35.1624 41.981C34.2582 41.0768 33.7503 39.8504 33.7503 38.5717V11.2503Z" stroke="black" stroke-linecap="round" stroke-linejoin="round"/>
</svg>
