<svg width="45" height="45" viewBox="0 0 45 45" fill="none" xmlns="http://www.w3.org/2000/svg">
<path d="M38.5717 24.108V17.6794C38.5717 16.827 38.2331 16.0094 37.6303 15.4066C37.0275 14.8038 36.2099 14.4652 35.3574 14.4652H4.82171C3.96923 14.4652 3.15166 14.8038 2.54886 15.4066C1.94607 16.0094 1.60742 16.827 1.60742 17.6794V40.1794C1.60742 41.0319 1.94607 41.8495 2.54886 42.4523C3.15166 43.0551 3.96923 43.3937 4.82171 43.3937H35.3574C36.2099 43.3937 37.0275 43.0551 37.6303 42.4523C38.2331 41.8495 38.5717 41.0319 38.5717 40.1794V32.1437M12.3431 6.42945L30.5681 1.67231C30.7729 1.6146 30.9873 1.59899 31.1983 1.62642C31.4093 1.65385 31.6125 1.72374 31.7958 1.83188C31.979 1.94002 32.1384 2.08417 32.2644 2.25562C32.3904 2.42707 32.4804 2.62228 32.5289 2.82945L33.4289 6.42945" stroke="black" stroke-linecap="round" stroke-linejoin="round"/>
<path d="M41.7854 24.1074H33.7497C32.8621 24.1074 32.1426 24.827 32.1426 25.7146V30.536C32.1426 31.4236 32.8621 32.1431 33.7497 32.1431H41.7854C42.673 32.1431 43.3926 31.4236 43.3926 30.536V25.7146C43.3926 24.827 42.673 24.1074 41.7854 24.1074Z" stroke="black" stroke-linecap="round" stroke-linejoin="round"/>
</svg>
