<svg width="22" height="22" viewBox="0 0 22 22" fill="none" xmlns="http://www.w3.org/2000/svg">
<g clip-path="url(#clip0_369_14901)">
<path d="M11 22C17.0751 22 22 17.0751 22 11C22 4.92487 17.0751 0 11 0C4.92487 0 0 4.92487 0 11C0 17.0751 4.92487 22 11 22Z" fill="#0052B4"/>
<path d="M11.0008 4.30469L11.357 5.40078H12.5094L11.577 6.07818L11.9332 7.17427L11.0008 6.49682L10.0684 7.17427L10.4246 6.07818L9.49219 5.40078H10.6447L11.0008 4.30469Z" fill="#FFDA44"/>
<path d="M6.26819 6.26628L7.29515 6.78947L8.11005 5.97461L7.92971 7.11285L8.95662 7.63608L7.81833 7.81638L7.63804 8.95471L7.1148 7.9278L5.97656 8.10814L6.79147 7.29323L6.26819 6.26628Z" fill="#FFDA44"/>
<path d="M4.30469 11.0008L5.40078 10.6447V9.49219L6.07814 10.4246L7.17427 10.0684L6.49678 11.0008L7.17427 11.9332L6.07814 11.5771L5.40078 12.5095V11.357L4.30469 11.0008Z" fill="#FFDA44"/>
<path d="M6.26819 15.7353L6.79142 14.7083L5.97656 13.8934L7.11485 14.0738L7.63799 13.0469L7.81833 14.1852L8.95657 14.3655L7.92979 14.8887L8.11005 16.0269L7.29515 15.212L6.26819 15.7353Z" fill="#FFDA44"/>
<path d="M11.0008 17.6957L10.6446 16.5996H9.49219L10.4246 15.9222L10.0684 14.8262L11.0008 15.5035L11.9332 14.8262L11.577 15.9222L12.5094 16.5996H11.3569L11.0008 17.6957Z" fill="#FFDA44"/>
<path d="M15.7352 15.7353L14.7083 15.2121L13.8934 16.027L14.0737 14.8886L13.0469 14.3655L14.1851 14.1852L14.3654 13.0469L14.8886 14.0738L16.0268 13.8934L15.2119 14.7084L15.7352 15.7353Z" fill="#FFDA44"/>
<path d="M17.6976 11.0008L16.6015 11.357V12.5095L15.9241 11.577L14.8281 11.9332L15.5055 11.0008L14.8281 10.0684L15.9242 10.4246L16.6015 9.49219V10.6447L17.6976 11.0008Z" fill="#FFDA44"/>
<path d="M15.7352 6.26624L15.212 7.29319L16.0269 8.10809L14.8886 7.92771L14.3654 8.95462L14.1851 7.81634L13.0469 7.636L14.0737 7.11281L13.8934 5.97461L14.7083 6.78947L15.7352 6.26624Z" fill="#FFDA44"/>
</g>
<defs>
<clipPath id="clip0_369_14901">
<rect width="22" height="22" fill="white"/>
</clipPath>
</defs>
</svg>
