<svg width="24" height="24" viewBox="0 0 24 24" fill="none" xmlns="http://www.w3.org/2000/svg">
<g clip-path="url(#clip0_536_37891)">
<path d="M2.59263 23.1426L21.4498 23.1426C22.3966 23.1426 23.1641 22.3751 23.1641 21.4283L23.1641 2.57115C23.1641 1.62438 22.3966 0.856863 21.4498 0.856863L2.59263 0.856863C1.64586 0.856863 0.878347 1.62438 0.878347 2.57115L0.878347 21.4283C0.878347 22.3751 1.64586 23.1426 2.59263 23.1426Z" stroke="black" stroke-linecap="round" stroke-linejoin="round"/>
<path d="M15.8594 11.1426C17.5162 11.1426 18.8594 9.79943 18.8594 8.14258C18.8594 6.48572 17.5162 5.14258 15.8594 5.14258C14.2025 5.14258 12.8594 6.48572 12.8594 8.14258C12.8594 9.79943 14.2025 11.1426 15.8594 11.1426Z" stroke="black" stroke-linecap="round" stroke-linejoin="round"/>
<path d="M16.1165 23.1425C15.5645 20.2025 13.9859 17.5542 11.6623 15.6702C9.33878 13.7862 6.42142 12.7891 3.4308 12.8567C2.56796 12.8544 1.70689 12.9348 0.859375 13.0967" stroke="black" stroke-linecap="round" stroke-linejoin="round"/>
<path d="M23.1436 16.988C21.7629 16.5218 20.3152 16.2844 18.8579 16.2852C17.0132 16.2812 15.1872 16.6545 13.4922 17.3823" stroke="black" stroke-linecap="round" stroke-linejoin="round"/>
</g>
<defs>
<clipPath id="clip0_536_37891">
<rect width="24" height="24" fill="white"/>
</clipPath>
</defs>
</svg>
