<svg width="45" height="45" viewBox="0 0 45 45" fill="none" xmlns="http://www.w3.org/2000/svg">
<path d="M8.03516 24.1074V4.82171C8.03516 3.96923 8.3738 3.15166 8.9766 2.54886C9.57939 1.94607 10.397 1.60742 11.2494 1.60742H27.3209L43.3923 17.6789V40.1789C43.3923 41.0313 43.0537 41.8489 42.4509 42.4517C41.8481 43.0545 41.0305 43.3931 40.178 43.3931H30.5352" stroke="black" stroke-linecap="round" stroke-linejoin="round"/>
<path d="M27.3203 1.60742V17.6788H43.3917" stroke="black" stroke-linecap="round" stroke-linejoin="round"/>
<path d="M18.4327 40.0096C14.1153 40.0096 10.6154 36.5097 10.6154 32.1923C10.6154 27.8749 14.1153 24.375 18.4327 24.375C22.7501 24.375 26.25 27.8749 26.25 32.1923C26.25 36.5097 22.7501 40.0096 18.4327 40.0096Z" stroke="black" stroke-linecap="round" stroke-linejoin="round"/>
<path d="M7.49759 43.1255L12.9062 37.7168" stroke="black" stroke-linecap="round" stroke-linejoin="round"/>
</svg>
