<svg width="24" height="24" viewBox="0 0 24 24" fill="none" xmlns="http://www.w3.org/2000/svg">
<g clip-path="url(#clip0_606_58179)">
<path d="M16.2879 18.0003V21.4289C16.2879 21.8835 16.1073 22.3195 15.7858 22.641C15.4644 22.9625 15.0283 23.1431 14.5737 23.1431H2.57366C2.119 23.1431 1.68297 22.9625 1.36148 22.641C1.03999 22.3195 0.859375 21.8835 0.859375 21.4289V2.57171C0.859375 2.11705 1.03999 1.68102 1.36148 1.35952C1.68297 1.03803 2.119 0.857422 2.57366 0.857422H14.5737C15.0283 0.857422 15.4644 1.03803 15.7858 1.35952C16.1073 1.68102 16.2879 2.11705 16.2879 2.57171V6.00028M11.1451 12.0003H23.1451M23.1451 12.0003L19.7165 8.57171M23.1451 12.0003L19.7165 15.4289" stroke="#1D1E22" stroke-linecap="round" stroke-linejoin="round"/>
</g>
<defs>
<clipPath id="clip0_606_58179">
<rect width="24" height="24" fill="white"/>
</clipPath>
</defs>
</svg>
