<svg width="24" height="24" viewBox="0 0 24 24" fill="none" xmlns="http://www.w3.org/2000/svg">
<g clip-path="url(#clip0_606_59810)">
<path d="M17.1419 12.8574H3.11909C2.91815 12.8601 2.72291 12.7907 2.56879 12.6617C2.41466 12.5328 2.31188 12.3528 2.27909 12.1546L0.873376 5.29742C0.85081 5.1741 0.855568 5.04734 0.887317 4.92606C0.919066 4.80478 0.977031 4.69194 1.05713 4.5955C1.13722 4.49906 1.2375 4.42136 1.35089 4.36788C1.46427 4.31441 1.58801 4.28645 1.71338 4.28599H18.8562M17.1419 12.8574L18.8562 4.28599M17.1419 12.8574L16.4219 16.4574C16.3824 16.651 16.2772 16.825 16.1242 16.95C15.9711 17.0749 15.7795 17.1432 15.5819 17.1431H5.14195M18.8562 4.28599L19.5762 1.54314C19.6158 1.34953 19.721 1.17553 19.874 1.05057C20.0271 0.925613 20.2186 0.857382 20.4162 0.857422H23.1419" stroke="#1D1E22" stroke-linecap="round" stroke-linejoin="round"/>
<path d="M5.99777 23.144C6.47115 23.144 6.85491 22.7602 6.85491 22.2868C6.85491 21.8134 6.47115 21.4297 5.99777 21.4297C5.52438 21.4297 5.14062 21.8134 5.14062 22.2868C5.14062 22.7602 5.52438 23.144 5.99777 23.144Z" stroke="#1D1E22" stroke-linecap="round" stroke-linejoin="round"/>
<path d="M14.5681 23.144C15.0415 23.144 15.4252 22.7602 15.4252 22.2868C15.4252 21.8134 15.0415 21.4297 14.5681 21.4297C14.0947 21.4297 13.7109 21.8134 13.7109 22.2868C13.7109 22.7602 14.0947 23.144 14.5681 23.144Z" stroke="#1D1E22" stroke-linecap="round" stroke-linejoin="round"/>
<path d="M6 8.04545L9.18621 10.9048C9.23936 10.9442 9.30161 10.9725 9.36842 10.9875C9.43522 11.0026 9.50491 11.004 9.57241 10.9918C9.64056 10.9803 9.70516 10.9556 9.76181 10.9196C9.81845 10.8836 9.86582 10.837 9.90069 10.7831L13 6" stroke="#008001" stroke-linecap="round" stroke-linejoin="round"/>
</g>
<defs>
<clipPath id="clip0_606_59810">
<rect width="24" height="24" fill="white"/>
</clipPath>
</defs>
</svg>
