<svg width="40" height="40" viewBox="0 0 40 40" fill="none" xmlns="http://www.w3.org/2000/svg">
<circle cx="20" cy="20" r="19.5" stroke="#008001"/>
<g clip-path="url(#clip0_429_12364)">
<path d="M20.0011 20.0003C23.0781 20.0003 25.5725 17.5059 25.5725 14.4289C25.5725 11.3518 23.0781 8.85742 20.0011 8.85742C16.9241 8.85742 14.4297 11.3518 14.4297 14.4289C14.4297 17.5059 16.9241 20.0003 20.0011 20.0003Z" stroke="#008001" stroke-linecap="round" stroke-linejoin="round"/>
<path d="M30.5948 31.1423C29.8751 28.8981 28.4613 26.9404 26.5573 25.5514C24.6533 24.1625 22.3573 23.4141 20.0005 23.4141C17.6437 23.4141 15.3478 24.1625 13.4438 25.5514C11.5397 26.9404 10.1259 28.8981 9.40625 31.1423H30.5948Z" stroke="#008001" stroke-linecap="round" stroke-linejoin="round"/>
</g>
<defs>
<clipPath id="clip0_429_12364">
<rect width="24" height="24" fill="white" transform="translate(8 8)"/>
</clipPath>
</defs>
</svg>
