<svg width="24" height="24" viewBox="0 0 24 24" fill="none" xmlns="http://www.w3.org/2000/svg">
<g clip-path="url(#clip0_75_1056)">
<path d="M15.0199 22.286C16.0756 22.9671 17.3336 23.2639 18.5824 23.1265C19.8312 22.9892 20.9946 22.426 21.8771 21.5318L22.6485 20.7775C22.9867 20.4315 23.1761 19.967 23.1761 19.4832C23.1761 18.9994 22.9867 18.5348 22.6485 18.1889L19.3742 14.9489C19.0312 14.6118 18.5694 14.4229 18.0885 14.4229C17.6075 14.4229 17.1458 14.6118 16.8028 14.9489C16.4568 15.2871 15.9923 15.4765 15.5085 15.4765C15.0247 15.4765 14.5601 15.2871 14.2142 14.9489L9.07134 9.80604C8.89978 9.63697 8.76354 9.43548 8.67055 9.21328C8.57756 8.99109 8.52967 8.75262 8.52967 8.51175C8.52967 8.27088 8.57756 8.03242 8.67055 7.81022C8.76354 7.58803 8.89978 7.38653 9.07134 7.21747C9.40846 6.87443 9.59737 6.41271 9.59737 5.93175C9.59737 5.45079 9.40846 4.98907 9.07134 4.64604L5.8142 1.38889C5.46827 1.05069 5.0037 0.861328 4.51991 0.861328C4.03613 0.861328 3.57156 1.05069 3.22563 1.38889L2.47134 2.16032C1.57708 3.04274 1.01391 4.20615 0.876547 5.45495C0.739179 6.70375 1.03598 7.96176 1.71705 9.01747C5.2657 14.2473 9.78095 18.7509 15.0199 22.286Z" stroke="black" stroke-linecap="round" stroke-linejoin="round"/>
</g>
<defs>
<clipPath id="clip0_75_1056">
<rect width="24" height="24" fill="white"/>
</clipPath>
</defs>
</svg>
