<svg width="24" height="24" viewBox="0 0 24 24" fill="none" xmlns="http://www.w3.org/2000/svg">
<path d="M23.1451 8.57059C23.1451 8.11593 22.9645 7.6799 22.643 7.35841C22.3215 7.03692 21.8855 6.85631 21.4308 6.85631H18.0022L15.4308 3.42773H8.57366L6.00223 6.85631H2.57366C2.119 6.85631 1.68297 7.03692 1.36148 7.35841C1.03999 7.6799 0.859375 8.11593 0.859375 8.57059V18.8563C0.859375 19.311 1.03999 19.747 1.36148 20.0685C1.68297 20.39 2.119 20.5706 2.57366 20.5706H21.4308C21.8855 20.5706 22.3215 20.39 22.643 20.0685C22.9645 19.747 23.1451 19.311 23.1451 18.8563V8.57059Z" stroke="black" stroke-linecap="round" stroke-linejoin="round"/>
<path d="M12.0056 16.7143C14.1358 16.7143 15.8627 14.9874 15.8627 12.8571C15.8627 10.7269 14.1358 9 12.0056 9C9.87534 9 8.14844 10.7269 8.14844 12.8571C8.14844 14.9874 9.87534 16.7143 12.0056 16.7143Z" stroke="black" stroke-linecap="round" stroke-linejoin="round"/>
</svg>
