<svg width="45" height="45" viewBox="0 0 45 45" fill="none" xmlns="http://www.w3.org/2000/svg">
<path d="M23.6574 43.1679C22.9128 43.4552 22.0878 43.4552 21.3432 43.1679C15.5326 40.9371 10.5354 36.9961 7.01176 31.8656C3.48808 26.735 1.60367 20.6562 1.60744 14.4322V6.04287C1.60568 5.69091 1.71724 5.34772 1.92564 5.06407C2.13403 4.78043 2.42818 4.57139 2.76459 4.46787C15.6438 0.643523 29.3568 0.643523 42.236 4.46787C42.5724 4.57139 42.8666 4.78043 43.075 5.06407C43.2834 5.34772 43.3949 5.69091 43.3932 6.04287V14.4322C43.3969 20.6562 41.5125 26.735 37.9888 31.8656C34.4652 36.9961 29.468 40.9371 23.6574 43.1679Z" stroke="#008001" stroke-linecap="round" stroke-linejoin="round"/>
<path d="M20.6258 25.5448L16.7068 21.6258C16.5193 21.4383 16.265 21.333 15.9998 21.333C15.7346 21.333 15.4803 21.4383 15.2928 21.6258C15.1053 21.8133 15 22.0676 15 22.3328C15 22.5979 15.1053 22.8523 15.2928 23.0398L19.2118 26.9588C19.3975 27.1446 19.618 27.292 19.8607 27.3925C20.1034 27.4931 20.3636 27.5448 20.6263 27.5448C20.889 27.5448 21.1491 27.4931 21.3918 27.3925C21.6345 27.292 21.8551 27.1446 22.0408 26.9588L31.2928 17.7068C31.4803 17.5193 31.5856 17.2649 31.5856 16.9998C31.5856 16.7346 31.4803 16.4803 31.2928 16.2928C31.1053 16.1053 30.851 16 30.5858 16C30.3206 16 30.0663 16.1053 29.8788 16.2928L20.6258 25.5448Z" fill="#008001"/>
</svg>
