<svg width="24" height="24" viewBox="0 0 24 24" fill="none" xmlns="http://www.w3.org/2000/svg">
<path d="M22.2863 11.8974C22.2702 13.6822 21.7604 15.4277 20.8134 16.9405C19.8663 18.4534 18.519 19.6746 16.9206 20.4688L12.0006 23.1431L7.08057 20.5717C5.46661 19.7696 4.10895 18.5324 3.16083 16.9997C2.21272 15.4669 1.71188 13.6997 1.71486 11.8974V2.57171C1.71486 2.11705 1.89547 1.68102 2.21696 1.35952C2.53845 1.03803 2.97449 0.857422 3.42914 0.857422H20.572C21.0267 0.857422 21.4627 1.03803 21.7842 1.35952C22.1057 1.68102 22.2863 2.11705 22.2863 2.57171V11.8974Z" stroke="black" stroke-linecap="round" stroke-linejoin="round"/>
<g clip-path="url(#clip0_768_76307)">
<path d="M13.7126 11.7484C15.8429 11.7484 17.5698 10.9425 17.5698 9.94844C17.5698 8.95432 15.8429 8.14844 13.7126 8.14844C11.5824 8.14844 9.85547 8.95432 9.85547 9.94844C9.85547 10.9425 11.5824 11.7484 13.7126 11.7484Z" stroke="black" stroke-linecap="round" stroke-linejoin="round"/>
<path d="M9.85547 9.94922V15.3492C9.85547 16.3392 11.5698 17.1492 13.7126 17.1492C15.8555 17.1492 17.5698 16.3392 17.5698 15.3492V9.94922" stroke="black" stroke-linecap="round" stroke-linejoin="round"/>
<path d="M17.5706 12.6493C17.5706 13.6393 15.8563 14.4493 13.7134 14.4493C11.5706 14.4493 9.85631 13.6393 9.85631 12.6493M13.6277 6.3493C12.6262 5.70029 11.4603 5.38641 10.2849 5.4493C8.15059 5.4493 6.42773 6.2593 6.42773 7.2493C6.42773 7.7803 6.92488 8.2573 7.71345 8.5993" stroke="black" stroke-linecap="round" stroke-linejoin="round"/>
<path d="M7.71345 14C6.92488 13.658 6.42773 13.181 6.42773 12.65V7.25" stroke="black" stroke-linecap="round" stroke-linejoin="round"/>
<path d="M7.71345 11.2992C6.92488 10.9572 6.42773 10.4802 6.42773 9.94922" stroke="black" stroke-linecap="round" stroke-linejoin="round"/>
</g>
<defs>
<clipPath id="clip0_768_76307">
<rect width="12" height="14" fill="white" transform="translate(6 5)"/>
</clipPath>
</defs>
</svg>
