<svg width="24" height="24" viewBox="0 0 24 24" fill="none" xmlns="http://www.w3.org/2000/svg">
<path d="M8.96209 3.85742L9.69923 1.95456C9.82355 1.63239 10.0423 1.35527 10.3267 1.1595C10.6112 0.963731 10.9482 0.858442 11.2935 0.857422H12.6992C13.0446 0.858442 13.3815 0.963731 13.666 1.1595C13.9505 1.35527 14.1692 1.63239 14.2935 1.95456L15.0307 3.85742L17.5335 5.29742L19.5564 4.98885C19.8932 4.94313 20.236 4.99858 20.5413 5.14815C20.8465 5.29772 21.1004 5.53465 21.2707 5.82885L21.9564 7.02885C22.1321 7.32773 22.213 7.67287 22.1886 8.01871C22.1641 8.36456 22.0353 8.69485 21.8192 8.96599L20.5678 10.5603V13.4403L21.8535 15.0346C22.0696 15.3057 22.1984 15.636 22.2228 15.9818C22.2473 16.3277 22.1664 16.6728 21.9907 16.9717L21.3049 18.1717C21.1347 18.4659 20.8808 18.7028 20.5755 18.8524C20.2703 19.002 19.9275 19.0574 19.5907 19.0117L17.5678 18.7031L15.0649 20.1431L14.3278 22.046C14.2035 22.3682 13.9848 22.6453 13.7003 22.8411C13.4158 23.0368 13.0788 23.1421 12.7335 23.1431H11.2935C10.9482 23.1421 10.6112 23.0368 10.3267 22.8411C10.0423 22.6453 9.82355 22.3682 9.69923 22.046L8.96209 20.1431L6.45923 18.7031L4.43637 19.0117C4.09955 19.0574 3.75673 19.002 3.45149 18.8524C3.14624 18.7028 2.89236 18.4659 2.72209 18.1717L2.03637 16.9717C1.86066 16.6728 1.77971 16.3277 1.80419 15.9818C1.82868 15.636 1.95745 15.3057 2.17352 15.0346L3.42495 13.4403V10.5603L2.13923 8.96599C1.92316 8.69485 1.79439 8.36456 1.76991 8.01871C1.74542 7.67287 1.82638 7.32773 2.00209 7.02885L2.6878 5.82885C2.85807 5.53465 3.11196 5.29772 3.4172 5.14815C3.72244 4.99858 4.06526 4.94313 4.40209 4.98885L6.42495 5.29742L8.96209 3.85742ZM8.5678 12.0003C8.5678 12.6784 8.76889 13.3413 9.14562 13.9051C9.52236 14.4689 10.0578 14.9084 10.6843 15.1679C11.3108 15.4274 12.0002 15.4953 12.6653 15.363C13.3303 15.2307 13.9412 14.9041 14.4207 14.4246C14.9002 13.9452 15.2268 13.3342 15.3591 12.6692C15.4914 12.0041 15.4235 11.3147 15.164 10.6882C14.9045 10.0617 14.465 9.52626 13.9012 9.14953C13.3374 8.77279 12.6745 8.57171 11.9964 8.57171C11.0871 8.57171 10.215 8.93293 9.57201 9.57591C8.92903 10.2189 8.5678 11.091 8.5678 12.0003Z" stroke="#1D1E22" stroke-linecap="round" stroke-linejoin="round"/>
</svg>
